<?xml version="1.0" encoding="UTF-8"?>
<svg width="60px" height="60px" viewBox="0 0 60 60" version="1.1" xmlns="http://www.w3.org/2000/svg" xmlns:xlink="http://www.w3.org/1999/xlink">
    <!-- Generator: Sketch 52.4 (67378) - http://www.bohemiancoding.com/sketch -->
    <title>safari-pinned-tab</title>
    <desc>Created with Sketch.</desc>
    <g id="safari-pinned-tab" stroke="none" stroke-width="1" fill="none" fill-rule="evenodd">
        <g id="resources/brand/app-icon" transform="translate(2.000000, 2.000000)">
            <circle id="Oval" fill="#1F88E9" cx="28" cy="28" r="28"></circle>
            <g id="resources/brand/cclogo-house" transform="translate(9.625000, 8.750000)" fill="#FFFFFF">
                <path d="M23.3855129,17.4714988 C23.2301805,19.0840299 22.4738361,20.2595624 21.0974728,21.8890263 C19.7211095,23.5178389 19.5192429,23.7718321 19.5192429,23.7718321 C19.5192429,23.7718321 19.2184092,23.6461381 17.2226824,22.8776459 C15.2263003,22.1091537 13.9941274,21.440305 13.0758965,20.1019564 C12.0744283,18.6424725 12.2251729,16.5896866 13.7870175,15.6727061 C15.6523175,14.5779304 17.421272,15.6557732 17.8577758,17.3451535 C17.421272,15.6557732 18.449612,13.8641444 20.6144348,13.9305734 C22.4286127,13.9872334 23.5559198,15.7130845 23.3855129,17.4714988 Z M33.2068482,17.0631559 L35.3454545,13.4694781 L17.16304,2.78418055 L17.1656617,2.7796217 L13.5491033,0.654545455 L13.5464816,0.659104306 L13.5425492,0.656499248 L11.4039428,4.2495258 L11.4085306,4.25213086 L0.654545455,22.3195122 L4.27110386,24.4452397 L5.92929392,21.6584786 L9.46654758,35.3454545 L33.9389423,29.1017812 L30.4023441,15.4148053 L33.2068482,17.0631559 Z" id="Fill-22"></path>
            </g>
        </g>
    </g>
</svg>