<?xml version="1.0" encoding="UTF-8"?>
<svg width="24px" height="24px" viewBox="0 0 24 24" version="1.1" xmlns="http://www.w3.org/2000/svg" xmlns:xlink="http://www.w3.org/1999/xlink">
    <!-- Generator: Sketch 55.2 (78181) - https://sketchapp.com -->
    <title>kidsclub/icons/calendar</title>
    <desc>Created with Sketch.</desc>
    <g id="kidsclub/icons/calendar" stroke="none" stroke-width="1" fill="none" fill-rule="evenodd">
        <path d="M17.5,5 L19.5,5 C20.6045695,5 21.5,5.8954305 21.5,7 L21.5,19 C21.5,20.1045695 20.6045695,21 19.5,21 L4.5,21 C3.3954305,21 2.5,20.1045695 2.5,19 L2.5,7 C2.5,5.8954305 3.3954305,5 4.5,5 L6.5,5 L6.5,3 C6.5,2.72385763 6.72385763,2.5 7,2.5 C7.27614237,2.5 7.5,2.72385763 7.5,3 L7.5,5 L16.5,5 L16.5,3 C16.5,2.72385763 16.7238576,2.5 17,2.5 C17.2761424,2.5 17.5,2.72385763 17.5,3 L17.5,5 Z M20.5,7.92726736 L20.5,7 C20.5,6.44771525 20.0522847,6 19.5,6 L4.5,6 C3.94771525,6 3.5,6.44771525 3.5,7 L3.5,7.92726736 L20.5,7.92726736 Z M20.5,8.92726736 L3.5,8.92726736 L3.5,19 C3.5,19.5522847 3.94771525,20 4.5,20 L19.5,20 C20.0522847,20 20.5,19.5522847 20.5,19 L20.5,8.92726736 Z M8.53160619,13.7980579 L10.8400093,16.106461 L15.4546485,11.1103131 L16.1892459,11.7888163 L10.8686354,17.5493007 L7.82449941,14.5051647 L8.53160619,13.7980579 Z" id="Combined-Shape" fill="#000000" fill-rule="nonzero"></path>
    </g>
</svg>