<?xml version="1.0" encoding="UTF-8"?>
<svg width="24px" height="24px" viewBox="0 0 24 24" version="1.1" xmlns="http://www.w3.org/2000/svg" xmlns:xlink="http://www.w3.org/1999/xlink">
    <!-- Generator: Sketch 56.3 (81716) - https://sketch.com -->
    <title>lilypad-abr-logo</title>
    <desc>Created with Sketch.</desc>
    <g id="lilypad-abr-logo" stroke="none" stroke-width="1" fill="none" fill-rule="evenodd" fill-opacity="0.8">
        <g id="Lotus" transform="translate(0.188853, 0.270509)" fill="#FFFFFF">
            <path d="M5.05783967,3.90602576 C6.08434838,4.03567625 7.06262645,4.35315373 7.95650092,4.82936996 C7.5738712,5.70035531 7.30217195,6.6236995 7.16632232,7.58444288 C6.27003633,7.17138972 5.3182851,6.91125764 4.34161471,6.78576262 C4.4236068,5.80424192 4.65752538,4.83020105 5.05783967,3.90602576 M18.8381363,3.90602576 C19.2384506,4.83020105 19.4723692,5.80424192 19.5543613,6.78659371 C18.5784948,6.91208874 17.6259397,7.17222081 16.7304575,7.58527398 C16.5938041,6.6236995 16.321301,5.70035531 15.9394751,4.82936996 C16.8333496,4.35315373 17.8124315,4.03567625 18.8381363,3.90602576 M15.3968804,8.34489288 C14.8052513,8.7388309 14.2417567,9.18678997 13.7329235,9.71370286 C13.0094639,10.4616865 12.4122079,11.3035836 11.9483899,12.2310832 C11.4837681,11.3035836 10.8865121,10.4608554 10.1630525,9.71370286 C9.65341548,9.18678997 9.09072472,8.7388309 8.49909558,8.34489288 C8.70487962,5.80008645 9.94762236,3.47219527 11.9483899,1.94547764 C13.9491575,3.47219527 15.1910964,5.80008645 15.3968804,8.34489288 M11.9516053,18.8972793 C10.1614448,18.8881373 6.77726185,18.4800706 4.23068425,15.8471684 C2.29342035,13.8442345 1.40838817,11.0326473 1.81432936,8.24433064 C4.51042194,7.82213545 7.23143368,8.7388309 9.16869758,10.7417648 C10.1477795,11.7540359 10.8567699,12.9690937 11.2771802,14.3545255 L11.9483899,16.5693881 L12.6195996,14.3545255 C13.0392062,12.9699248 13.7481965,11.754867 14.7272784,10.7417648 C16.6645423,8.7388309 19.3855541,7.82296654 22.0816466,8.24433064 C22.4875878,11.0326473 21.6025557,13.8442345 19.6652918,15.8471684 C17.7601816,17.8168585 15.1597465,18.8424271 11.9516053,18.8972793 M23.3766392,7.47058316 L23.2825895,7.00184677 L22.8292215,6.90543999 C22.2054386,6.77246513 21.5784403,6.72176847 20.9554613,6.71096426 C20.8501577,5.36958034 20.5012895,4.0414939 19.885545,2.80233441 L19.674134,2.37681485 L19.2119238,2.40922747 C17.8100199,2.50729643 16.4804621,2.91702522 15.2763038,3.5627844 C14.5279251,2.34440222 13.5432163,1.27395458 12.3350389,0.451172626 L11.9483899,0.188547273 L11.561741,0.451172626 C10.3527597,1.27312349 9.36885472,2.34440222 8.61967217,3.5627844 C7.41551394,2.91702522 6.08595607,2.50729643 4.68405223,2.40922747 L4.22184197,2.37681485 L4.01043101,2.80233441 C3.39468655,4.0414939 3.04662213,5.36958034 2.94131857,6.71013317 C2.31753567,6.72093737 1.69134124,6.77163404 1.0667545,6.90543999 L0.613386516,7.00184677 L0.519336775,7.47058316 C-0.163930574,10.8946859 0.852128167,14.4110399 3.2363293,16.8752303 C6.13900977,19.8763067 9.93797623,20.3408876 11.9596437,20.3516918 C15.5608646,20.290191 18.4884642,19.1216744 20.6596467,16.8752303 C23.0438478,14.4110399 24.0599066,10.8946859 23.3766392,7.47058316" id="Fill-1"></path>
            <path d="M11.958438,23.4155989 C9.58307913,23.4047947 5.11049144,22.9086322 1.69254701,19.7105868 L2.63625979,18.6318282 C5.70774749,21.5057474 9.79047087,21.9512132 11.9512034,21.9611863 C15.826535,21.9021787 18.9623302,20.7818655 21.2597162,18.6318282 L22.203429,19.7105868 C19.6455976,22.1041343 16.1987148,23.3507736 11.958438,23.4155989" id="Fill-4"></path>
        </g>
    </g>
</svg>