<svg width="24" height="24" viewBox="0 0 24 24" fill="none" xmlns="http://www.w3.org/2000/svg">
<mask id="path-1-inside-1" fill="white">
<path fill-rule="evenodd" clip-rule="evenodd" d="M6 3C3.79086 3 2 4.79086 2 7V15C2 16.8638 3.27477 18.4299 5 18.874V22L9.71429 19H18C20.2091 19 22 17.2091 22 15V7C22 4.79086 20.2091 3 18 3H6Z"/>
</mask>
<path d="M5 18.874H6V18.0988L5.24926 17.9055L5 18.874ZM5 22H4V23.8217L5.53688 22.8437L5 22ZM9.71429 19V18H9.42309L9.17741 18.1563L9.71429 19ZM3 7C3 5.34315 4.34315 4 6 4V2C3.23858 2 1 4.23858 1 7H3ZM3 15V7H1V15H3ZM5.24926 17.9055C3.95512 17.5725 3 16.3965 3 15H1C1 17.3312 2.59442 19.2874 4.75074 19.8424L5.24926 17.9055ZM6 22V18.874H4V22H6ZM9.17741 18.1563L4.46312 21.1563L5.53688 22.8437L10.2512 19.8437L9.17741 18.1563ZM18 18H9.71429V20H18V18ZM21 15C21 16.6569 19.6569 18 18 18V20C20.7614 20 23 17.7614 23 15H21ZM21 7V15H23V7H21ZM18 4C19.6569 4 21 5.34315 21 7H23C23 4.23858 20.7614 2 18 2V4ZM6 4H18V2H6V4Z" fill="black" mask="url(#path-1-inside-1)"/>
<line x1="6.5" y1="8.5" x2="17.5" y2="8.5" stroke="black" stroke-linecap="round"/>
<line x1="6.5" y1="12.5" x2="13.5" y2="12.5" stroke="black" stroke-linecap="round"/>
</svg>
