<svg width="32" height="32" viewBox="0 0 32 32" fill="none" xmlns="http://www.w3.org/2000/svg">
<circle opacity="0.6" cx="16" cy="16" r="16" fill="#0CBA52"/>
<path d="M15.7771 6C11.4867 6 8 9.48671 8 13.7771C8 16.3953 9.51653 18.5859 11.2793 20.1154C11.8367 20.5949 12.8088 21.3597 13.6773 22.4874C14.6364 23.7447 15.5049 25.0927 15.7771 26C16.0493 25.0927 16.9177 23.7447 17.8769 22.4874C18.7453 21.3597 19.7174 20.5949 20.2748 20.1154C22.0376 18.5859 23.5541 16.3953 23.5541 13.7771C23.5541 9.48671 20.0674 6 15.7771 6ZM15.7771 9.31821C16.3626 9.31821 16.9424 9.43354 17.4834 9.65762C18.0244 9.8817 18.5159 10.2101 18.9299 10.6242C19.344 11.0382 19.6724 11.5298 19.8965 12.0707C20.1206 12.6117 20.2359 13.1915 20.2359 13.7771C20.2359 14.3626 20.1206 14.9424 19.8965 15.4834C19.6724 16.0244 19.344 16.5159 18.9299 16.9299C18.5159 17.344 18.0244 17.6724 17.4834 17.8965C16.9424 18.1206 16.3626 18.2359 15.7771 18.2359C14.5945 18.2359 13.4604 17.7661 12.6242 16.9299C11.788 16.0937 11.3182 14.9596 11.3182 13.7771C11.3182 12.5945 11.788 11.4604 12.6242 10.6242C13.4604 9.78798 14.5945 9.31821 15.7771 9.31821V9.31821Z" fill="white"/>
</svg>
