<?xml version="1.0" encoding="UTF-8"?>
<svg width="300px" height="300px" viewBox="0 0 300 300" version="1.1" xmlns="http://www.w3.org/2000/svg" xmlns:xlink="http://www.w3.org/1999/xlink">
    <!-- Generator: Sketch 55.2 (78181) - https://sketchapp.com -->
    <title>illustrations/heart-door-2</title>
    <desc>Created with Sketch.</desc>
    <g id="illustrations/heart-door-2" stroke="none" stroke-width="1" fill="none" fill-rule="evenodd">
        <g id="Group-19" transform="translate(26.000000, 27.000000)">
            <path d="M0,123.799358 C0,55.4270192 55.4258983,0.00112090395 123.798237,0.00112090395 C192.169175,0.00112090395 247.595073,55.4270192 247.595073,123.799358 C247.595073,192.171697 192.169175,247.597595 123.798237,247.597595 C55.4258983,247.597595 0,192.171697 0,123.799358" id="Fill-1" fill="#FE6F76"></path>
            <path d="M211.699946,115.392579 C211.699946,109.090296 216.808466,103.980375 223.110748,103.980375 C229.413031,103.980375 234.52155,109.090296 234.52155,115.392579 C234.52155,121.69346 229.413031,126.803381 223.110748,126.803381 C216.808466,126.803381 211.699946,121.69346 211.699946,115.392579" id="Fill-3" fill="#F4F301"></path>
            <path d="M109.877871,210.927923 C109.877871,208.309211 112.000583,206.185098 114.619295,206.185098 C117.238007,206.185098 119.360719,208.309211 119.360719,210.927923 C119.360719,213.545234 117.238007,215.669347 114.619295,215.669347 C112.000583,215.669347 109.877871,213.545234 109.877871,210.927923" id="Fill-5" fill="#AEEFFA"></path>
            <path d="M45.475774,199.75181 C45.475774,189.600624 53.7046102,181.371788 63.8571977,181.371788 C74.0083842,181.371788 82.2372203,189.600624 82.2372203,199.75181 C82.2372203,209.904398 74.0083842,218.134635 63.8571977,218.134635 C53.7046102,218.134635 45.475774,209.904398 45.475774,199.75181" id="Fill-7" fill="#F2F2F2" opacity="0.138346354"></path>
            <path d="M75.5262282,39.3305582 C75.5262282,33.0464904 80.6193356,27.9533831 86.9034034,27.9533831 C93.1860701,27.9533831 98.2791774,33.0464904 98.2791774,39.3305582 C98.2791774,45.6132249 93.1860701,50.7077333 86.9034034,50.7077333 C80.6193356,50.7077333 75.5262282,45.6132249 75.5262282,39.3305582" id="Fill-9" fill="#F2F2F2" opacity="0.308244978"></path>
            <path d="M176.391892,74.4983593 C177.986377,75.3460429 178.983982,77.0049808 178.983982,78.8110373 L178.983982,185.742472 L194.204456,185.742472 L194.204456,45.0424045 L120.995417,45.0424045 L176.391892,74.4983593 Z" id="Fill-11" fill="#64426B"></path>
            <path d="M121.589076,80.7172746 C101.160601,74.7890938 87.0161944,83.644235 87.0161944,100.875331 C87.0161944,100.066879 86.9699571,99.2766418 86.9027028,98.4962124 C86.8354486,99.2766418 86.7906124,100.066879 86.7906124,100.875331 C86.7906124,83.644235 72.6448045,74.7890938 52.2163299,80.7172746 C35.1085333,85.6828791 28.603087,107.06132 34.5382734,123.474156 C39.978861,138.522292 50.0557876,147.93228 67.1495729,160.161342 C84.2433582,172.391806 86.7906124,174.323964 86.7906124,174.323964 C86.7906124,174.323964 86.8242395,174.297342 86.9027028,174.239896 C86.9811661,174.297342 87.0161944,174.323964 87.0161944,174.323964 C87.0161944,174.323964 89.5634486,172.391806 106.655833,160.161342 C123.749618,147.93228 133.826545,138.522292 139.267132,123.474156 C145.20372,107.06132 138.696872,85.6828791 121.589076,80.7172746" id="Fill-13" fill="#FFFFFF"></path>
            <path d="M162.268362,146.637496 C164.510169,146.142897 166.960746,147.986784 167.742576,150.755417 C168.524407,153.525451 167.341853,156.172185 165.100045,156.665383 C162.859638,157.159982 160.409062,155.314694 159.627232,152.546061 C158.845401,149.777428 160.027955,147.132095 162.268362,146.637496 L162.268362,146.637496 Z M172.014621,78.9447051 L110.820271,46.4048633 L110.820271,182.939372 L110.820271,184.889745 L172.014621,217.430988 L172.014621,78.9447051 Z" id="Fill-15" fill="#AEEFFA"></path>
            <path d="M165.100746,156.665663 C167.341153,156.171064 168.523706,153.525731 167.741876,150.755697 C166.960045,147.987064 164.509469,146.143177 162.269062,146.637776 C160.027254,147.130974 158.844701,149.777708 159.626531,152.546341 C160.408362,155.314974 162.858938,157.160262 165.100746,156.665663" id="Fill-17" fill="#64426B"></path>
        </g>
    </g>
</svg>