<?xml version="1.0" encoding="UTF-8"?>
<svg width="100px" height="100px" viewBox="0 0 100 100" version="1.1" xmlns="http://www.w3.org/2000/svg" xmlns:xlink="http://www.w3.org/1999/xlink">
    <!-- Generator: Sketch 54 (76480) - https://sketchapp.com -->
    <title>illustrations/card-main-100/interests</title>
    <desc>Created with Sketch.</desc>
    <g id="illustrations/card-main-100/interests" stroke="none" stroke-width="1" fill="none" fill-rule="evenodd">
        <g id="illustrations/organic-circle/purple" transform="translate(47.000000, 11.000000)" fill="#FD6F77">
            <path d="M7.63871436,42.3765985 C-1.65872854,31.0973146 -3.14242015,16.1500242 6.94712777,6.39987978 C17.0366757,-3.3502647 35.2059794,-1.4544554 45.6761345,8.66349297 C56.1462896,18.7814413 54.957334,33.2947763 44.8677861,43.0449208 C34.7782382,52.7950652 16.9361573,53.6558825 7.63871436,42.3765985 Z" id="Oval-3"></path>
        </g>
        <g id="illustrations/organic-circle/purple" transform="translate(0.000000, 46.000000)" fill="#AFF0FC">
            <path d="M18,34.9023718 C27.9536372,36.0388246 36,27.0730434 36,17.4150774 C36,7.75711141 29.4354352,0 19.4955871,0 C9.55573898,1.18016584e-15 0,7.75711141 0,17.4150774 C0,27.0730434 8.04636276,33.7659191 18,34.9023718 Z" id="Oval-3"></path>
        </g>
        <g id="illustrations/organic-circle/purple" transform="translate(6.000000, 6.000000)" fill="#1F88E9" opacity="0.82968285">
            <path d="M45,87.7545349 C69.8840931,90.6119019 90,68.0693664 90,43.7864804 C90,19.5035944 73.5885879,0 48.7389677,0 C23.8893474,2.96727411e-15 0,19.5035944 0,43.7864804 C0,68.0693664 20.1159069,84.8971679 45,87.7545349 Z" id="Oval-3"></path>
        </g>
        <path d="M36.9440879,32.6302255 C29.1277366,34.9265282 25.6034944,43.7862297 28.4874136,51.859543 C30.6761007,57.9845994 34.3603904,62.0119389 42.3848394,67.8232809 C45.4057755,70.0106959 47.5395387,71.5642852 48.9374033,72.5907117 C49.767697,73.2003812 50.1668972,73.4978051 50.2814093,73.5858076 C50.9998937,74.1379632 51.9998357,74.1380746 52.7184432,73.5860791 C52.8331416,73.4979739 53.2325037,73.2004835 54.0629399,72.5907416 C55.4609137,71.5642892 57.594662,70.0106784 60.6152924,67.8233344 C68.6405901,62.0113778 72.3247082,57.9842258 74.5123393,51.8594809 C77.3967308,43.7864434 73.8725943,34.9265706 66.0561179,32.6302255 C59.8019385,30.7928306 54.3138168,33.1999212 51.5001029,37.7865006 C48.686389,33.1999212 43.1982672,30.7928306 36.9440879,32.6302255 Z M70.7454793,50.513834 C68.8861452,55.7194408 65.7001819,59.202054 58.2691857,64.5836149 C55.2420527,66.7756676 53.101521,68.3342174 51.6955785,69.3665207 C51.6280994,69.4160668 51.562985,69.4639074 51.5001863,69.5100772 C51.4374038,69.4639164 51.3723067,69.4160857 51.3048461,69.3665506 C49.8989429,68.3342215 47.7583369,66.77565 44.7308933,64.583523 C37.3006568,59.2025123 34.1144619,55.719646 32.2542238,50.5137565 C30.0929526,44.4634417 32.6384722,38.0641812 38.0715757,36.4680336 C44.4806268,34.5851395 49.5001029,38.811938 49.5001029,45.1670847 C49.5001029,47.8337513 53.5001029,47.8337513 53.5001029,45.1670847 C53.5001029,38.811938 58.519579,34.5851395 64.9286216,36.4680311 C70.3617883,38.0641984 72.9071921,44.4634805 70.7454793,50.513834 Z" id="Fill-6" fill="#FFFFFF" fill-rule="nonzero"></path>
    </g>
</svg>