<?xml version="1.0" encoding="UTF-8"?>
<svg width="150px" height="46px" viewBox="0 0 150 46" version="1.1" xmlns="http://www.w3.org/2000/svg" xmlns:xlink="http://www.w3.org/1999/xlink">
    <!-- Generator: Sketch 57.1 (83088) - https://sketch.com -->
    <title>resources/brand/lilypad__logo</title>
    <desc>Created with Sketch.</desc>
    <g id="resources/brand/lilypad__logo" stroke="none" stroke-width="1" fill="none" fill-rule="evenodd">
        <g id="Lotus" transform="translate(0.000000, 3.000000)">
            <path d="M8.91632914,6.45717004 C10.7266842,6.67976219 12.4519796,7.22482759 14.0284204,8.04242568 C13.353613,9.53778835 12.874443,11.123044 12.6348581,12.7725089 C11.0541643,12.0633532 9.37565182,11.616742 7.6531918,11.4012842 C7.79779338,9.71614744 8.21033318,8.04385256 8.91632914,6.45717004 M33.2193186,6.45717004 C33.9253145,8.04385256 34.3378543,9.71614744 34.4824559,11.4027111 C32.7614136,11.6181688 31.0814834,12.06478 29.5022073,12.7739358 C29.2612047,11.123044 28.7806171,9.53778835 28.1072273,8.04242568 C29.6836681,7.22482759 31.4103811,6.67976219 33.2193186,6.45717004 M27.1503051,14.0780975 C26.1069055,14.7544352 25.113124,15.5235196 24.2157436,16.428157 C22.9398473,17.7123424 21.886524,19.1577646 21.0685327,20.7501546 C20.2491237,19.1577646 19.1958004,17.7109156 17.9199041,16.428157 C17.0211061,15.5235196 16.0287423,14.7544352 14.9853426,14.0780975 C15.3482642,9.70901308 17.5399706,5.71234245 21.0685327,3.09117717 C24.5970948,5.71234245 26.7873835,9.70901308 27.1503051,14.0780975 M21.0742033,32.1951011 C17.9170688,32.1794055 11.9487094,31.4788109 7.45755436,26.958478 C4.04098757,23.5197146 2.48014108,18.692604 3.19606068,13.9054459 C7.95090093,13.1805945 12.7496887,14.7544352 16.1662555,18.1931986 C17.8929685,19.9311296 19.1433469,22.0172176 19.8847844,24.3958145 L21.0685327,28.1984304 L22.2522809,24.3958145 C22.9923008,22.0186445 24.2426792,19.9325565 25.9693922,18.1931986 C29.385959,14.7544352 34.1847468,13.1820214 38.939587,13.9054459 C39.6555066,18.692604 38.0946601,23.5197146 34.6780933,26.958478 C31.3182331,30.3401665 26.7320946,32.1009275 21.0742033,32.1951011 M41.2234414,12.5770273 L41.0575749,11.7722711 L40.2580132,11.6067539 C39.1579071,11.3784542 38.0521303,11.291415 36.9534418,11.2728656 C36.767728,8.96989298 36.1524624,6.6897503 35.0665329,4.562283 L34.6936876,3.83172414 L33.8785317,3.88737218 C31.4061281,4.05574316 29.0613142,4.75919144 26.9376557,5.86787158 C25.6178119,3.7760761 23.8811752,1.93826397 21.7504284,0.525659929 L21.0685327,0.0747681332 L20.386637,0.525659929 C18.2544725,1.9368371 16.5192535,3.7760761 15.197992,5.86787158 C13.0743335,4.75919144 10.7295196,4.05574316 8.25711605,3.88737218 L7.44196007,3.83172414 L7.06911482,4.562283 C5.98318529,6.6897503 5.3693374,8.96989298 5.1836236,11.2714388 C4.08351745,11.2899881 2.97915831,11.3770273 1.87763449,11.6067539 L1.0780728,11.7722711 L0.91220628,12.5770273 C-0.292806903,18.4557432 1.49911858,24.4928419 5.70390576,28.7235196 C10.8230853,33.8759572 17.5229586,34.6735791 21.08838,34.6921284 C27.4395083,34.5865398 32.6026353,32.5803567 36.4317419,28.7235196 C40.6365291,24.4928419 42.4284546,18.4557432 41.2234414,12.5770273" id="Fill-1" fill="#FD6F77"></path>
            <path d="M21.0862535,39.9524376 C16.8970606,39.9338882 9.00918604,39.0820452 2.9812848,33.5914388 L4.64562066,31.7393579 C10.0625093,36.6734839 17.2628175,37.4382878 21.0734945,37.4554102 C27.9080457,37.3541023 33.4383474,35.4306778 37.4900271,31.7393579 L39.1543629,33.5914388 C34.6433606,37.7008323 28.5644235,39.8411415 21.0862535,39.9524376" id="Fill-4" fill="#0CBA52"></path>
        </g>
        <g id="Group-15" transform="translate(59.000000, 11.000000)" fill="#231F20">
            <g id="Group-14" transform="translate(0.240434, 0.463421)">
                <path d="M21.8352772,0.423751441 L24.6126528,0.423751441 L24.6126528,16.2032536 C24.6126528,17.9512823 25.2998386,18.2662424 26.1602524,18.2662424 C26.417947,18.2662424 26.6470089,18.2376097 26.6470089,18.2376097 L26.6470089,20.7000252 C26.6470089,20.7000252 26.2175178,20.7572907 25.7307613,20.7572907 C24.154529,20.7572907 21.8352772,20.3277996 21.8352772,16.6900102 L21.8352772,0.423751441 Z" id="Fill-3"></path>
                <path d="M29.1079928,23.6500562 C29.1079928,23.6500562 29.9097095,24.2513437 30.7973244,24.2513437 C31.9140012,24.2513437 32.8603132,23.4496271 33.4029036,22.1310895 L34.118722,20.4703906 L28.0485815,6.15115812 L31.16955,6.15115812 L34.8073394,15.6300262 C35.0936668,16.375909 35.3513614,17.3780549 35.3513614,17.3780549 L35.4086269,17.3780549 C35.4086269,17.3780549 35.6376888,16.4045418 35.8953834,15.6586589 L39.4186419,6.15115812 L42.4250794,6.15115812 L35.6376888,23.2491979 C34.7500739,25.4825515 32.9748441,26.6564938 30.940488,26.6564938 C29.308422,26.6564938 28.1344797,25.7688789 28.1344797,25.7688789 L29.1079928,23.6500562 Z" id="Fill-5"></path>
                <path d="M51.5570619,18.6092626 C53.8491126,18.6092626 55.7388733,16.7195019 55.7388733,13.4253053 C55.7388733,10.2757041 54.0481101,8.24277966 51.6429601,8.24277966 C49.466872,8.24277966 47.4625803,9.7603148 47.4625803,13.4539381 C47.4625803,16.0323162 48.8942172,18.6092626 51.5570619,18.6092626 L51.5570619,18.6092626 Z M44.7696712,6.15115812 L47.3194166,6.15115812 L47.3194166,7.38236587 C47.3194166,7.95645228 47.2621511,8.44177719 47.2621511,8.44177719 L47.3194166,8.44177719 C47.3194166,8.44177719 48.5491927,5.80756526 52.1869821,5.80756526 C56.0824662,5.80756526 58.5448817,8.90133265 58.5448817,13.3966726 C58.5448817,18.0079751 55.7675061,20.9872116 51.986553,20.9872116 C48.808319,20.9872116 47.5484785,18.6092626 47.5484785,18.6092626 L47.491213,18.6092626 C47.491213,18.6092626 47.5484785,19.1246519 47.5484785,19.8691031 L47.5484785,26.3701664 L44.7696712,26.3701664 L44.7696712,6.15115812 Z" id="Fill-7"></path>
                <path d="M66.3026359,18.7525695 C68.6505204,18.7525695 70.1694872,16.290154 70.1694872,14.1412669 L70.1694872,13.6831431 L69.4522371,13.6831431 C67.3620472,13.6831431 63.5825257,13.8263068 63.5825257,16.4333177 C63.5825257,17.6072599 64.4987733,18.7525695 66.3026359,18.7525695 M69.5095026,11.5929532 L70.1408545,11.5929532 L70.1408545,11.3352586 C70.1408545,8.95874129 68.7936841,8.15702461 66.9611889,8.15702461 C64.7278353,8.15702461 62.9239727,9.56002879 62.9239727,9.56002879 L61.7772316,7.52567273 C61.7772316,7.52567273 63.8688531,5.80770842 67.1902508,5.80770842 C70.8566729,5.80770842 72.9182301,7.81200011 72.9182301,11.4784223 L72.9182301,20.6423302 L70.339852,20.6423302 L70.339852,19.2679588 C70.339852,18.6094058 70.3971175,18.1226492 70.3971175,18.1226492 L70.339852,18.1226492 C70.339852,18.1226492 69.1659097,20.9873547 65.7013484,20.9873547 C63.2088685,20.9873547 60.7750857,19.4683879 60.7750857,16.5750497 C60.7750857,11.7933824 67.0757198,11.5929532 69.5095026,11.5929532" id="Fill-9"></path>
                <path d="M83.0530742,18.5806299 C85.2005296,18.5806299 87.2348857,17.0630947 87.2348857,13.3680398 C87.2348857,10.7910934 85.8877153,8.21414692 83.1389724,8.21414692 C80.8483533,8.21414692 78.9585926,10.1039077 78.9585926,13.3966726 C78.9585926,16.5477055 80.6479242,18.5806299 83.0530742,18.5806299 M82.6808486,5.80756526 C86.0323106,5.80756526 87.1489874,8.09961597 87.1489874,8.09961597 L87.2062529,8.09961597 C87.2062529,8.09961597 87.1489874,7.66869326 87.1489874,7.12610286 L87.1489874,0.423178787 L89.9263631,0.423178787 L89.9263631,20.6421871 L87.2907195,20.6421871 L87.2907195,19.2678156 C87.2907195,18.6951608 87.3193522,18.2943025 87.3193522,18.2943025 L87.2620868,18.2943025 C87.2620868,18.2943025 86.0895761,20.9872116 82.5090522,20.9872116 C78.5849354,20.9872116 76.1225199,17.8934442 76.1225199,13.3966726 C76.1225199,8.78680169 78.8440616,5.80756526 82.6808486,5.80756526" id="Fill-11"></path>
                <polygon id="Fill-1" points="0.304030543 0.42332195 0.304030543 20.6437619 12.1894803 20.6437619 12.1894803 18.1799147 3.14010329 18.1799147 3.14010329 0.42332195"></polygon>
                <path d="M14.8494617,3.2593947 L17.6554701,3.2593947 L17.6554701,0.42332195 L14.8494617,0.42332195 L14.8494617,3.2593947 Z M14.8780944,20.6437619 L17.6554701,20.6437619 L17.6554701,6.15273292 L14.8780944,6.15273292 L14.8780944,20.6437619 Z" id="Fill-2"></path>
            </g>
        </g>
    </g>
</svg>