<?xml version="1.0" encoding="UTF-8"?>
<svg width="42px" height="40px" viewBox="0 0 42 40" version="1.1" xmlns="http://www.w3.org/2000/svg" xmlns:xlink="http://www.w3.org/1999/xlink">
    <!-- Generator: Sketch 57.1 (83088) - https://sketch.com -->
    <title>resources/brand/lilypad__logo-abbr</title>
    <desc>Created with Sketch.</desc>
    <g id="resources/brand/lilypad__logo-abbr" stroke="none" stroke-width="1" fill="none" fill-rule="evenodd">
        <g id="Lotus">
            <path d="M8.91632914,6.45717004 C10.7266842,6.67976219 12.4519796,7.22482759 14.0284204,8.04242568 C13.353613,9.53778835 12.874443,11.123044 12.6348581,12.7725089 C11.0541643,12.0633532 9.37565182,11.616742 7.6531918,11.4012842 C7.79779338,9.71614744 8.21033318,8.04385256 8.91632914,6.45717004 M33.2193186,6.45717004 C33.9253145,8.04385256 34.3378543,9.71614744 34.4824559,11.4027111 C32.7614136,11.6181688 31.0814834,12.06478 29.5022073,12.7739358 C29.2612047,11.123044 28.7806171,9.53778835 28.1072273,8.04242568 C29.6836681,7.22482759 31.4103811,6.67976219 33.2193186,6.45717004 M27.1503051,14.0780975 C26.1069055,14.7544352 25.113124,15.5235196 24.2157436,16.428157 C22.9398473,17.7123424 21.886524,19.1577646 21.0685327,20.7501546 C20.2491237,19.1577646 19.1958004,17.7109156 17.9199041,16.428157 C17.0211061,15.5235196 16.0287423,14.7544352 14.9853426,14.0780975 C15.3482642,9.70901308 17.5399706,5.71234245 21.0685327,3.09117717 C24.5970948,5.71234245 26.7873835,9.70901308 27.1503051,14.0780975 M21.0742033,32.1951011 C17.9170688,32.1794055 11.9487094,31.4788109 7.45755436,26.958478 C4.04098757,23.5197146 2.48014108,18.692604 3.19606068,13.9054459 C7.95090093,13.1805945 12.7496887,14.7544352 16.1662555,18.1931986 C17.8929685,19.9311296 19.1433469,22.0172176 19.8847844,24.3958145 L21.0685327,28.1984304 L22.2522809,24.3958145 C22.9923008,22.0186445 24.2426792,19.9325565 25.9693922,18.1931986 C29.385959,14.7544352 34.1847468,13.1820214 38.939587,13.9054459 C39.6555066,18.692604 38.0946601,23.5197146 34.6780933,26.958478 C31.3182331,30.3401665 26.7320946,32.1009275 21.0742033,32.1951011 M41.2234414,12.5770273 L41.0575749,11.7722711 L40.2580132,11.6067539 C39.1579071,11.3784542 38.0521303,11.291415 36.9534418,11.2728656 C36.767728,8.96989298 36.1524624,6.6897503 35.0665329,4.562283 L34.6936876,3.83172414 L33.8785317,3.88737218 C31.4061281,4.05574316 29.0613142,4.75919144 26.9376557,5.86787158 C25.6178119,3.7760761 23.8811752,1.93826397 21.7504284,0.525659929 L21.0685327,0.0747681332 L20.386637,0.525659929 C18.2544725,1.9368371 16.5192535,3.7760761 15.197992,5.86787158 C13.0743335,4.75919144 10.7295196,4.05574316 8.25711605,3.88737218 L7.44196007,3.83172414 L7.06911482,4.562283 C5.98318529,6.6897503 5.3693374,8.96989298 5.1836236,11.2714388 C4.08351745,11.2899881 2.97915831,11.3770273 1.87763449,11.6067539 L1.0780728,11.7722711 L0.91220628,12.5770273 C-0.292806903,18.4557432 1.49911858,24.4928419 5.70390576,28.7235196 C10.8230853,33.8759572 17.5229586,34.6735791 21.08838,34.6921284 C27.4395083,34.5865398 32.6026353,32.5803567 36.4317419,28.7235196 C40.6365291,24.4928419 42.4284546,18.4557432 41.2234414,12.5770273" id="Fill-1" fill="#FD6F77"></path>
            <path d="M21.0862535,39.9524376 C16.8970606,39.9338882 9.00918604,39.0820452 2.9812848,33.5914388 L4.64562066,31.7393579 C10.0625093,36.6734839 17.2628175,37.4382878 21.0734945,37.4554102 C27.9080457,37.3541023 33.4383474,35.4306778 37.4900271,31.7393579 L39.1543629,33.5914388 C34.6433606,37.7008323 28.5644235,39.8411415 21.0862535,39.9524376" id="Fill-4" fill="#0CBA52"></path>
        </g>
    </g>
</svg>