<?xml version="1.0" encoding="UTF-8"?>
<svg width="274px" height="74px" viewBox="0 0 274 74" version="1.1" xmlns="http://www.w3.org/2000/svg" xmlns:xlink="http://www.w3.org/1999/xlink">
    <!-- Generator: Sketch 55.2 (78181) - https://sketchapp.com -->
    <title>lilypad__primary-transparent--cropped</title>
    <desc>Created with Sketch.</desc>
    <g id="lilypad__primary-transparent--cropped" stroke="none" stroke-width="1" fill="none" fill-rule="evenodd">
        <g id="Lotus" transform="translate(-1.000000, 0.483890)">
            <path d="M16.3763245,11.859669 C19.7013434,12.2684966 22.8701358,13.2696 25.7655321,14.7712552 C24.5261358,17.5177379 23.6460604,20.4293241 23.2060226,23.4588414 C20.3028151,22.1563586 17.2199472,21.3360828 14.0563623,20.9403586 C14.3219472,17.8453241 15.0796453,14.7738759 16.3763245,11.859669 M61.0128151,11.859669 C62.3094943,14.7738759 63.0671925,17.8453241 63.3327774,20.9429793 C60.1717962,21.3387034 57.0863245,22.1589793 54.1857208,23.4614621 C53.7430792,20.4293241 52.8604,17.5177379 51.6236075,14.7712552 C54.5190038,13.2696 57.6904,12.2684966 61.0128151,11.859669 M49.8660604,25.8567724 C47.949683,27.0989793 46.1244377,28.511531 44.4762491,30.1730483 C42.1328528,32.531669 40.1982491,35.1864276 38.6958717,38.1111172 C37.1908906,35.1864276 35.2562868,32.5290483 32.9128906,30.1730483 C31.2620981,28.511531 29.4394566,27.0989793 27.5230792,25.8567724 C28.1896453,17.8322207 32.2150792,10.491669 38.6958717,5.67746207 C45.1766642,10.491669 49.1994943,17.8322207 49.8660604,25.8567724 M38.7062868,59.131669 C32.907683,59.1028414 21.9457962,57.8160828 13.6970415,49.5137379 C7.42194717,43.1978759 4.55519245,34.3320828 5.87009811,25.539669 C14.6031547,24.2083586 23.4169283,27.0989793 29.6920226,33.4148414 C32.8634189,36.6068414 35.1599472,40.4382897 36.5217208,44.8069793 L38.6958717,51.7911172 L40.8700226,44.8069793 C42.2291925,40.4409103 44.5257208,36.6094621 47.697117,33.4148414 C53.9722113,27.0989793 62.7859849,24.2109793 71.5190415,25.539669 C72.8339472,34.3320828 69.9671925,43.1978759 63.6920981,49.5137379 C57.5211547,55.7247724 49.0979472,58.9587034 38.7062868,59.131669 M75.7137208,23.0998069 L75.4090792,21.6217379 L73.9405509,21.3177379 C71.9200226,20.8984276 69.8890792,20.7385655 67.8711547,20.7044966 C67.5300604,16.4747034 66.4000226,12.2868414 64.4055321,8.3793931 L63.7207396,7.0376 L62.2235698,7.1398069 C57.6825887,7.44904828 53.3759472,8.74104828 49.4754943,10.7773241 C47.0513811,6.9353931 43.8617585,3.55994483 39.9482868,0.965462069 L38.6958717,0.137324138 L37.4434566,0.965462069 C33.5273811,3.55732414 30.3403623,6.9353931 27.9136453,10.7773241 C24.0131925,8.74104828 19.7065509,7.44904828 15.1655698,7.1398069 L13.6684,7.0376 L12.9836075,8.3793931 C10.989117,12.2868414 9.86168302,16.4747034 9.52058868,20.7018759 C7.50006038,20.7359448 5.47172075,20.8958069 3.44858868,21.3177379 L1.98006038,21.6217379 L1.67541887,23.0998069 C-0.537788679,33.8970483 2.75338113,44.9851862 10.4761736,52.755531 C19.8784,62.2188414 32.183834,63.6838069 38.7323245,63.7178759 C50.3972302,63.5239448 59.8801736,59.8392552 66.912966,52.755531 C74.6357585,44.9851862 77.9269283,33.8970483 75.7137208,23.0998069" id="Fill-1" fill="#FD6F77"></path>
            <path d="M38.7284189,73.3793103 C31.0342679,73.3452414 16.5468717,71.7806897 5.47562642,61.6962759 L8.5324566,58.2946207 C18.4814755,67.3569655 31.7060415,68.7616552 38.7049849,68.7931034 C51.2577774,68.6070345 61.4150981,65.0743448 68.856683,58.2946207 L71.9135132,61.6962759 C63.6283057,69.2438621 52.4633245,73.1748966 38.7284189,73.3793103" id="Fill-4" fill="#0CBA52"></path>
        </g>
        <g id="Group-15" transform="translate(107.500000, 14.000000)" fill="#231F20">
            <g id="Group-14" transform="translate(0.441597, 0.851150)">
                <path d="M40.1041258,0.778290147 L45.2052391,0.778290147 L45.2052391,29.7599758 C45.2052391,32.9705218 46.4673702,33.5489986 48.0476635,33.5489986 C48.5209627,33.5489986 48.941673,33.4964098 48.941673,33.4964098 L48.941673,38.0190463 C48.941673,38.0190463 48.1528411,38.1242239 47.2588316,38.1242239 C44.3638183,38.1242239 40.1041258,37.3353919 40.1041258,30.6539853 L40.1041258,0.778290147 Z" id="Fill-3"></path>
                <path d="M53.4616801,43.4372699 C53.4616801,43.4372699 54.9341664,44.5416347 56.5644191,44.5416347 C58.6153821,44.5416347 60.3534418,43.0691484 61.3499995,40.6474343 L62.6647194,37.5972841 L51.5158946,11.2976271 L57.2480734,11.2976271 L63.92948,28.7071481 C64.455368,30.0770862 64.9286671,31.9176941 64.9286671,31.9176941 L65.0338447,31.9176941 C65.0338447,31.9176941 65.4545551,30.129675 65.9278542,28.7597369 L72.3989056,11.2976271 L77.9207292,11.2976271 L65.4545551,42.7010268 C63.8243024,46.8029529 60.563797,48.9590936 56.827363,48.9590936 C53.8298017,48.9590936 51.673661,47.3288409 51.673661,47.3288409 L53.4616801,43.4372699 Z" id="Fill-5"></path>
                <path d="M94.693137,34.1790124 C98.9028701,34.1790124 102.373731,30.7081518 102.373731,24.6578108 C102.373731,18.8730432 99.2683623,15.1392386 94.8509034,15.1392386 C90.8541549,15.1392386 87.1729391,17.9264448 87.1729391,24.7103996 C87.1729391,29.4460207 89.8023789,34.1790124 94.693137,34.1790124 L94.693137,34.1790124 Z M82.2269628,11.2976271 L86.9099951,11.2976271 L86.9099951,13.5589453 C86.9099951,14.6133507 86.8048176,15.5047308 86.8048176,15.5047308 L86.9099951,15.5047308 C86.9099951,15.5047308 89.1686839,10.6665615 95.8500905,10.6665615 C103.004796,10.6665615 107.527433,16.348781 107.527433,24.605222 C107.527433,33.0746476 102.426319,38.5465119 95.4819689,38.5465119 C89.6446126,38.5465119 87.3307055,34.1790124 87.3307055,34.1790124 L87.2255279,34.1790124 C87.2255279,34.1790124 87.3307055,35.1256107 87.3307055,36.4929194 L87.3307055,48.4332056 L82.2269628,48.4332056 L82.2269628,11.2976271 Z" id="Fill-7"></path>
                <path d="M121.775841,34.4422193 C126.088123,34.4422193 128.877958,29.9195828 128.877958,25.9727936 L128.877958,25.1313729 L127.560609,25.1313729 C123.721627,25.1313729 116.779906,25.3943169 116.779906,30.1825268 C116.779906,32.3386674 118.462747,34.4422193 121.775841,34.4422193 M127.665786,21.2923908 L128.825369,21.2923908 L128.825369,20.8190916 C128.825369,16.4542215 126.351066,14.9817352 122.985384,14.9817352 C118.883457,14.9817352 115.570363,17.5585862 115.570363,17.5585862 L113.464182,13.8221522 C113.464182,13.8221522 117.305794,10.6668245 123.406094,10.6668245 C130.140089,10.6668245 133.926483,14.3480402 133.926483,21.0820356 L133.926483,37.9130798 L129.190861,37.9130798 L129.190861,35.3888176 C129.190861,34.1792753 129.296039,33.2852658 129.296039,33.2852658 L129.190861,33.2852658 C129.190861,33.2852658 127.034721,38.5467748 120.671476,38.5467748 C116.093622,38.5467748 111.623574,35.7569392 111.623574,30.4428413 C111.623574,21.6605123 123.195739,21.2923908 127.665786,21.2923908" id="Fill-9"></path>
                <path d="M152.540813,34.1264236 C156.484973,34.1264236 160.221407,31.3392173 160.221407,24.5526332 C160.221407,19.8196415 157.747104,15.0866498 152.698579,15.0866498 C148.491476,15.0866498 145.020615,18.5575104 145.020615,24.605222 C145.020615,30.392619 148.123354,34.1264236 152.540813,34.1264236 M151.857159,10.6665615 C158.012677,10.6665615 160.06364,14.8762947 160.06364,14.8762947 L160.168818,14.8762947 C160.168818,14.8762947 160.06364,14.0848333 160.06364,13.0882756 L160.06364,0.777238371 L165.164754,0.777238371 L165.164754,37.9128169 L160.323955,37.9128169 L160.323955,35.3885547 C160.323955,34.3367787 160.376544,33.6005356 160.376544,33.6005356 L160.271366,33.6005356 C160.271366,33.6005356 158.117855,38.5465119 151.541626,38.5465119 C144.334331,38.5465119 139.811695,32.8642924 139.811695,24.605222 C139.811695,16.1384258 144.81026,10.6665615 151.857159,10.6665615" id="Fill-11"></path>
                <polygon id="Fill-1" points="0.558402764 0.777501315 0.558402764 37.9157093 22.3880121 37.9157093 22.3880121 33.3904433 5.76732304 33.3904433 5.76732304 0.777501315"></polygon>
                <path d="M27.2735113,5.98642159 L32.4272133,5.98642159 L32.4272133,0.777501315 L27.2735113,0.777501315 L27.2735113,5.98642159 Z M27.3261001,37.9157093 L32.4272133,37.9157093 L32.4272133,11.3005195 L27.3261001,11.3005195 L27.3261001,37.9157093 Z" id="Fill-2"></path>
            </g>
        </g>
    </g>
</svg>