<?xml version="1.0" encoding="UTF-8"?>
<svg width="24px" height="24px" viewBox="0 0 24 24" version="1.1" xmlns="http://www.w3.org/2000/svg" xmlns:xlink="http://www.w3.org/1999/xlink">
    <!-- Generator: Sketch 55.1 (78136) - https://sketchapp.com -->
    <title>kidsclub/icons/megaphone__blue</title>
    <desc>Created with Sketch.</desc>
    <g id="kidsclub/icons/megaphone__blue" stroke="none" stroke-width="1" fill="none" fill-rule="evenodd">
        <path d="M11.053081,17.4848546 L10.4223785,19.4259572 L5.64836538,17.8747863 L6.28465926,15.9164751 L2.21459181,14.577791 L2.21459181,9.42220899 L21.333748,3.13373571 L21.333748,20.8662643 L11.053081,17.4848546 Z M10.1031384,17.1724094 L10.0971607,17.1704433 L7.23124526,16.2392509 L6.90843889,17.2327468 L9.780339,18.1658837 L10.1031384,17.1724094 L10.1031384,17.1724094 Z M4.16023238,10.5 L4.16023238,13.5 C4.16023238,13.7761424 4.38409001,14 4.66023238,14 C4.93637476,14 5.16023238,13.7761424 5.16023238,13.5 L5.16023238,10.5 C5.16023238,10.2238576 4.93637476,10 4.66023238,10 C4.38409001,10 4.16023238,10.2238576 4.16023238,10.5 Z" id="Shape" fill="#1F88E9" fill-rule="nonzero"></path>
    </g>
</svg>