<svg width="24" height="24" viewBox="0 0 24 24" fill="none" xmlns="http://www.w3.org/2000/svg">
<mask id="mask0" mask-type="alpha" maskUnits="userSpaceOnUse" x="2" y="2" width="20" height="20">
<circle cx="12" cy="12" r="10" fill="#C4C4C4"/>
</mask>
<g mask="url(#mask0)">
<circle cx="12" cy="12" r="9.5" stroke="black"/>
<path fill-rule="evenodd" clip-rule="evenodd" d="M9.27605 10.4037C9.91391 10.4037 10.431 9.88657 10.431 9.24871C10.431 8.61084 9.91391 8.09375 9.27605 8.09375C8.63818 8.09375 8.12109 8.61084 8.12109 9.24871C8.12109 9.88657 8.63818 10.4037 9.27605 10.4037ZM9.27605 11.4037C10.4662 11.4037 11.431 10.4389 11.431 9.24871C11.431 8.05856 10.4662 7.09375 9.27605 7.09375C8.0859 7.09375 7.12109 8.05856 7.12109 9.24871C7.12109 10.4389 8.0859 11.4037 9.27605 11.4037Z" fill="black"/>
<path fill-rule="evenodd" clip-rule="evenodd" d="M14.5885 10.4037C15.2264 10.4037 15.7435 9.88657 15.7435 9.24871C15.7435 8.61084 15.2264 8.09375 14.5885 8.09375C13.9507 8.09375 13.4336 8.61084 13.4336 9.24871C13.4336 9.88657 13.9507 10.4037 14.5885 10.4037ZM14.5885 11.4037C15.7787 11.4037 16.7435 10.4389 16.7435 9.24871C16.7435 8.05856 15.7787 7.09375 14.5885 7.09375C13.3984 7.09375 12.4336 8.05856 12.4336 9.24871C12.4336 10.4389 13.3984 11.4037 14.5885 11.4037Z" fill="black"/>
<path fill-rule="evenodd" clip-rule="evenodd" d="M10.5555 13.2982C10.183 13.1411 9.77352 13.0542 9.3438 13.0542C7.62058 13.0542 6.22363 14.4511 6.22363 16.1744V16.9062H5.22363V16.1744C5.22363 13.8989 7.06829 12.0542 9.3438 12.0542C10.0464 12.0542 10.708 12.2301 11.2869 12.5402C10.9919 12.7858 10.7503 13.0436 10.5555 13.2982ZM11.4067 13.8334C11.5289 13.9412 11.6427 14.0584 11.7467 14.1839C11.927 13.8976 12.1757 13.6588 12.4698 13.4903C12.3654 13.3688 12.2541 13.2535 12.1364 13.145C11.8296 13.3691 11.5905 13.6061 11.4067 13.8334Z" fill="black"/>
<path fill-rule="evenodd" clip-rule="evenodd" d="M17.7765 16.9062V16.1744C17.7765 14.4511 16.3795 13.0542 14.6563 13.0542C12.9331 13.0542 11.5361 14.4511 11.5361 16.1744V16.9062H10.5361V16.1744C10.5361 13.8989 12.3808 12.0542 14.6563 12.0542C16.9318 12.0542 18.7765 13.8989 18.7765 16.1744V16.9062H17.7765Z" fill="black"/>
</g>
</svg>
