<?xml version="1.0" encoding="UTF-8"?>
<svg width="100px" height="100px" viewBox="0 0 100 100" version="1.1" xmlns="http://www.w3.org/2000/svg" xmlns:xlink="http://www.w3.org/1999/xlink">
    <!-- Generator: Sketch 54 (76480) - https://sketchapp.com -->
    <title>illustrations/card-main-100/photos</title>
    <desc>Created with Sketch.</desc>
    <g id="illustrations/card-main-100/photos" stroke="none" stroke-width="1" fill="none" fill-rule="evenodd">
        <g id="illustrations/organic-circle/purple" transform="translate(47.000000, 11.000000)" fill="#AFF0FC">
            <path d="M7.63871436,42.3765985 C-1.65872854,31.0973146 -3.14242015,16.1500242 6.94712777,6.39987978 C17.0366757,-3.3502647 35.2059794,-1.4544554 45.6761345,8.66349297 C56.1462896,18.7814413 54.957334,33.2947763 44.8677861,43.0449208 C34.7782382,52.7950652 16.9361573,53.6558825 7.63871436,42.3765985 Z" id="Oval-3"></path>
        </g>
        <g id="illustrations/organic-circle/purple" transform="translate(0.000000, 46.000000)" fill="#F5F400">
            <path d="M18,34.9023718 C27.9536372,36.0388246 36,27.0730434 36,17.4150774 C36,7.75711141 29.4354352,0 19.4955871,0 C9.55573898,1.18016584e-15 0,7.75711141 0,17.4150774 C0,27.0730434 8.04636276,33.7659191 18,34.9023718 Z" id="Oval-3"></path>
        </g>
        <g id="illustrations/organic-circle/purple" transform="translate(6.000000, 6.000000)" fill="#FF6550">
            <path d="M45,87.7545349 C69.8840931,90.6119019 90,68.0693664 90,43.7864804 C90,19.5035944 73.5885879,0 48.7389677,0 C23.8893474,2.96727411e-15 0,19.5035944 0,43.7864804 C0,68.0693664 20.1159069,84.8971679 45,87.7545349 Z" id="Oval-3" style="mix-blend-mode: multiply;"></path>
        </g>
        <path d="M51,41.5555556 C45.204,41.5555556 40.5,46.2844444 40.5,52.1111111 C40.5,57.9398889 45.204,62.6666667 51,62.6666667 C56.796,62.6666667 61.5,57.9398889 61.5,52.1111111 C61.5,46.2844444 56.796,41.5555556 51,41.5555556 L51,41.5555556 Z M51,45.7777778 C54.465,45.7777778 57.3,48.6298889 57.3,52.1111111 C57.3,55.5944444 54.465,58.4444444 51,58.4444444 C47.535,58.4444444 44.7,55.5944444 44.7,52.1111111 C44.7,48.6298889 47.535,45.7777778 51,45.7777778 L51,45.7777778 Z M57.3,31 L44.7,31 L40.857,35.2222222 L34.2,35.2222222 C31.89,35.2222222 30,37.1222222 30,39.4444444 L30,64.7777778 C30,67.1021111 31.89,69 34.2,69 L67.8,69 C70.11,69 72,67.1021111 72,64.7777778 L72,39.4444444 C72,37.1222222 70.11,35.2222222 67.8,35.2222222 L61.143,35.2222222 L57.3,31 Z M55.452,35.2222222 L59.295,39.4444444 L67.8,39.4444444 L67.8,64.7777778 L34.2,64.7777778 L34.2,39.4444444 L42.705,39.4444444 L46.548,35.2222222 L55.452,35.2222222 L55.452,35.2222222 Z" id="Fill-1" fill="#FFFFFF"></path>
    </g>
</svg>