<?xml version="1.0" encoding="UTF-8"?>
<svg width="300px" height="300px" viewBox="0 0 300 300" version="1.1" xmlns="http://www.w3.org/2000/svg" xmlns:xlink="http://www.w3.org/1999/xlink">
    <!-- Generator: Sketch 55.2 (78181) - https://sketchapp.com -->
    <title>illustrations/playdates-2</title>
    <desc>Created with Sketch.</desc>
    <defs>
        <polygon id="path-1" points="0 247.597876 247.596475 247.597876 247.596475 0 0 0"></polygon>
    </defs>
    <g id="illustrations/playdates-2" stroke="none" stroke-width="1" fill="none" fill-rule="evenodd">
        <g id="Group-19" transform="translate(26.000000, 27.000000)">
            <path d="M123.796976,0.00112090395 C192.169315,0.00112090395 247.595214,55.4270192 247.595214,123.799358 C247.595214,192.171697 192.169315,247.597595 123.796976,247.597595 C55.4260384,247.597595 0.000140112994,192.171697 0.000140112994,123.799358 C0.000140112994,55.4270192 55.4260384,0.00112090395 123.796976,0.00112090395 Z" id="Fill-1" fill="#AEEFFA"></path>
            <path d="M85.7564384,127.712574 C100.333794,112.706472 99.9863141,88.7261333 84.9816136,74.1487774 C69.9755119,59.5714215 45.9951729,59.9189017 31.4178169,74.9236023 C16.840461,89.929704 17.1879412,113.910043 32.1926418,128.487399 L59.3633537,154.881885 L85.7564384,127.712574 Z" id="Fill-3" fill="#FFFFFF" opacity="0.659179688"></path>
            <path d="M172.532339,179.635647 C176.552181,179.635647 179.811209,182.894676 179.811209,186.914518 C179.811209,190.932958 176.552181,194.191986 172.532339,194.191986 C168.512497,194.191986 165.253469,190.932958 165.253469,186.914518 C165.253469,182.894676 168.512497,179.635647 172.532339,179.635647 Z" id="Fill-5" fill="#F4F301"></path>
            <path d="M170.806007,162.926893 C195.708289,137.29322 195.115611,96.3255819 169.480538,71.4232994 C143.846866,46.5210169 102.880628,47.1136949 77.9783458,72.7487684 C53.0746621,98.3824407 53.6687412,139.350079 79.3024136,164.25096 L125.716244,209.340723 L170.806007,162.926893 Z" id="Fill-7" fill="#64426B"></path>
            <path d="M204.081442,77.1036203 C210.459385,70.5365243 210.306662,60.0448633 203.742368,53.6669198 C197.176673,47.2889763 186.683611,47.4402983 180.305668,54.0073944 C173.927724,60.5716881 174.079046,71.0633492 180.644741,77.4426938 L192.533329,88.9908068 L204.081442,77.1036203 Z" id="Fill-9" fill="#FFFFFF" opacity="0.456310454"></path>
            <path d="M124.980371,169.335521 C96.5556475,169.335521 73.5112633,146.292538 73.5112633,117.867815 C73.5112633,89.4416904 96.5556475,66.3987073 124.980371,66.3987073 C153.406495,66.3987073 176.449478,89.4416904 176.449478,117.867815 C176.449478,146.292538 153.406495,169.335521 124.980371,169.335521 Z" id="Fill-11" fill="#AEEFFA"></path>
            <mask id="mask-2" fill="white">
                <use xlink:href="#path-1"></use>
            </mask>
            <g id="Clip-14"></g>
            <polygon id="Fill-13" fill="#CEF9DF" mask="url(#mask-2)" points="115.985537 145.461107 135.988068 145.461107 135.988068 115.866441 115.985537 115.866441"></polygon>
            <path d="M113.133957,118.411033 L115.916601,122.171666 C115.916601,122.171666 89.9494599,89.1021966 110.646951,79.3783548 C135.987788,67.4701514 146.471042,80.8607503 146.471042,80.8607503 C150.336759,89.6122079 146.049302,113.699033 136.356285,121.427666 L135.584262,110.739846 L113.133957,118.411033 Z" id="Fill-15" fill="#FE6F76" mask="url(#mask-2)"></path>
            <path d="M143.950549,106.75181 C143.950549,120.002296 135.908063,130.743358 125.986662,130.743358 C116.065261,130.743358 108.021374,120.002296 108.021374,106.75181 C108.021374,93.5013243 116.065261,82.7602621 125.986662,82.7602621 C135.908063,82.7602621 143.950549,93.5013243 143.950549,106.75181" id="Fill-16" fill="#DDF9E8" mask="url(#mask-2)"></path>
            <path d="M143.923227,82.9530576 C143.923227,82.9530576 125.697329,99.7007638 111.080741,99.8478825 C111.080741,99.8478825 98.9245379,90.2991819 114.915634,83.8750011 C130.905329,77.4508203 144.640606,78.6137582 143.923227,82.9530576" id="Fill-17" fill="#FE6F76" mask="url(#mask-2)"></path>
            <path d="M161.407928,145.296475 C159.784018,143.390938 143.874188,137.041017 140.186414,135.883684 C139.550301,135.684723 136.458007,134.664701 135.987227,134.395684 C134.101306,137.260994 131.933758,140.067458 126.395092,140.067458 C120.933487,140.067458 117.57638,137.969966 115.638617,135.167706 C115.152425,135.453537 113.272108,135.833243 112.605171,136.043412 C108.915995,137.200746 93.006165,143.550667 91.3822554,145.454802 C89.7597469,147.360339 88.1358373,157.829582 88.1358373,157.829582 C88.1358373,157.829582 109.376967,177.036271 126.518391,177.036271 L126.518391,176.869537 C143.61638,176.688791 164.654346,157.671254 164.654346,157.671254 C164.654346,157.671254 163.031837,147.20061 161.407928,145.296475" id="Fill-18" fill="#FE6F76" mask="url(#mask-2)"></path>
        </g>
    </g>
</svg>