<?xml version="1.0" encoding="UTF-8"?>
<svg width="100px" height="100px" viewBox="0 0 100 100" version="1.1" xmlns="http://www.w3.org/2000/svg" xmlns:xlink="http://www.w3.org/1999/xlink">
    <!-- Generator: Sketch 54 (76480) - https://sketchapp.com -->
    <title>illustrations/card-main-100/003</title>
    <desc>Created with Sketch.</desc>
    <g id="illustrations/card-main-100/003" stroke="none" stroke-width="1" fill="none" fill-rule="evenodd">
        <g id="illustrations/organic-circle/purple" transform="translate(46.000000, 7.000000)" fill="#AFF0FC">
            <path d="M7.63871436,42.3765985 C-1.65872854,31.0973146 -3.14242015,16.1500242 6.94712777,6.39987978 C17.0366757,-3.3502647 35.2059794,-1.4544554 45.6761345,8.66349297 C56.1462896,18.7814413 54.957334,33.2947763 44.8677861,43.0449208 C34.7782382,52.7950652 16.9361573,53.6558825 7.63871436,42.3765985 Z" id="Oval-3"></path>
        </g>
        <g id="illustrations/organic-circle/purple" transform="translate(0.000000, 54.000000)" fill="#F5F400">
            <path d="M18,34.9023718 C27.9536372,36.0388246 36,27.0730434 36,17.4150774 C36,7.75711141 29.4354352,0 19.4955871,0 C9.55573898,1.18016584e-15 0,7.75711141 0,17.4150774 C0,27.0730434 8.04636276,33.7659191 18,34.9023718 Z" id="Oval-3"></path>
        </g>
        <g id="illustrations/organic-circle/purple" transform="translate(6.000000, 4.000000)" fill="#0CBA52">
            <path d="M45,87.7545349 C69.8840931,90.6119019 90,68.0693664 90,43.7864804 C90,19.5035944 73.5885879,0 48.7389677,0 C23.8893474,2.96727411e-15 0,19.5035944 0,43.7864804 C0,68.0693664 20.1159069,84.8971679 45,87.7545349 Z" id="Oval-3" style="mix-blend-mode: multiply;"></path>
        </g>
        <path d="M39.296,60.816 L42.698,56.658 C45.02,59.358 48.854,61.032 52.688,61.032 C57.44,61.032 60.194,58.872 60.194,55.524 C60.194,51.96 57.332,50.448 52.202,50.448 C50.69,50.448 48.584,50.448 48.044,50.502 L48.044,44.832 C48.692,44.886 50.798,44.886 52.202,44.886 C56.414,44.886 59.6,43.428 59.6,40.134 C59.6,36.786 56.36,35.058 52.31,35.058 C48.638,35.058 45.614,36.462 43.022,39.054 L39.782,35.112 C42.536,31.872 46.91,29.442 52.904,29.442 C60.68,29.442 65.918,33.114 65.918,39.162 C65.918,43.968 61.814,46.776 58.088,47.424 C61.598,47.748 66.458,50.61 66.458,56.172 C66.458,62.274 61.22,66.648 52.904,66.648 C46.478,66.648 41.726,64.056 39.296,60.816 Z" id="3" fill="#FFFFFF" fill-rule="nonzero"></path>
    </g>
</svg>